<svg xmlns="http://www.w3.org/2000/svg" viewBox="0 0 512 341.3333333333333" clip-path="url(#clip)" width="1913.0000000000002" height="1275.3333333333335"><defs><clipPath id="clip" clipPathUnits="objectBoundingBox"><rect x="0" y="0" width="512" height="341.3333333333333"/></clipPath></defs><rect x="0" y="0" width="512" height="341.3333333333333" fill="rgb(76, 188, 208)"/><path d="M354,199L224,158L311,75Z" fill="rgb(119, 61, 23)" fill-opacity="0.59"/><path d="M321,235L288,161L319,382Z" fill="rgb(149, 29, 0)" fill-opacity="0.49"/><path d="M293,211L345,617L-111,252Z" fill="rgb(134, 230, 243)" fill-opacity="0.92"/><path d="M335,176L594,343L321,342Z" fill="rgb(139, 236, 249)" fill-opacity="0.62"/><path d="M524,83L-253,156L586,-401Z" fill="rgb(0, 161, 189)" fill-opacity="0.70"/><path d="M340,272L475,339L310,384Z" fill="rgb(168, 240, 250)" fill-opacity="0.47"/><path d="M273,186L368,157L323,91Z" fill="rgb(114, 96, 71)" fill-opacity="0.62"/><path d="M265,261L-302,273L222,50Z" fill="rgb(55, 216, 241)" fill-opacity="0.38"/><path d="M307,219L283,177L317,183Z" fill="rgb(126, 101, 85)" fill-opacity="0.65"/><path d="M312,115L249,110L298,203Z" fill="rgb(106, 86, 64)" fill-opacity="0.67"/><path d="M-132,388L311,337L208,276Z" fill="rgb(185, 245, 252)" fill-opacity="0.54"/><path d="M302,134L310,91L249,88Z" fill="rgb(124, 113, 83)" fill-opacity="0.63"/><path d="M285,134L286,110L294,132Z" fill="rgb(210, 189, 126)" fill-opacity="0.49"/><path d="M312,365L326,324L306,304Z" fill="rgb(114, 87, 78)" fill-opacity="0.71"/><path d="M343,149L355,167L370,175Z" fill="rgb(129, 91, 60)" fill-opacity="0.50"/><path d="M328,151L626,294L315,274Z" fill="rgb(84, 211, 233)" fill-opacity="0.40"/><path d="M339,112L332,110L347,105Z" fill="rgb(108, 56, 13)" fill-opacity="0.51"/><path d="M3,-76L-13,198L216,4Z" fill="rgb(0, 159, 187)" fill-opacity="0.51"/><path d="M368,308L315,245L319,182Z" fill="rgb(106, 222, 239)" fill-opacity="0.58"/><path d="M342,113L420,-70L612,259Z" fill="rgb(30, 173, 201)" fill-opacity="0.72"/><path d="M289,97L257,91L286,117Z" fill="rgb(99, 74, 45)" fill-opacity="0.52"/><path d="M238,136L254,122L277,164Z" fill="rgb(117, 93, 64)" fill-opacity="0.51"/><path d="M363,139L322,112L334,132Z" fill="rgb(179, 137, 71)" fill-opacity="0.53"/><path d="M332,208L315,174L313,181Z" fill="rgb(79, 217, 245)" fill-opacity="0.53"/><path d="M262,174L281,176L280,163Z" fill="rgb(47, 212, 250)" fill-opacity="0.49"/><path d="M225,44L379,64L230,113Z" fill="rgb(34, 210, 236)" fill-opacity="0.27"/><path d="M324,443L324,316L315,262Z" fill="rgb(128, 114, 105)" fill-opacity="0.95"/><path d="M353,121L346,138L332,122Z" fill="rgb(171, 153, 97)" fill-opacity="0.47"/><path d="M236,149L289,141L233,174Z" fill="rgb(121, 97, 71)" fill-opacity="0.57"/><path d="M-26,220L228,313L235,162Z" fill="rgb(118, 224, 240)" fill-opacity="0.34"/><path d="M331,89L338,96L317,123Z" fill="rgb(107, 169, 163)" fill-opacity="0.54"/><path d="M326,184L330,174L340,208Z" fill="rgb(91, 62, 43)" fill-opacity="0.66"/><path d="M258,154L267,174L249,184Z" fill="rgb(92, 146, 151)" fill-opacity="0.83"/><path d="M334,136L355,125L306,112Z" fill="rgb(140, 122, 72)" fill-opacity="0.57"/><path d="M347,78L310,108L309,82Z" fill="rgb(58, 202, 226)" fill-opacity="0.48"/><path d="M315,220L302,175L304,239Z" fill="rgb(164, 123, 98)" fill-opacity="0.66"/><path d="M314,193L306,182L312,205Z" fill="rgb(51, 241, 255)" fill-opacity="0.39"/><path d="M234,159L-100,145L248,-1Z" fill="rgb(9, 188, 213)" fill-opacity="0.31"/><path d="M363,163L366,150L344,151Z" fill="rgb(106, 196, 207)" fill-opacity="0.62"/><path d="M317,130L322,143L307,133Z" fill="rgb(195, 168, 109)" fill-opacity="0.57"/><path d="M244,184L253,162L265,160Z" fill="rgb(47, 228, 255)" fill-opacity="0.45"/><path d="M323,106L320,171L351,150Z" fill="rgb(89, 96, 82)" fill-opacity="0.53"/><path d="M308,97L289,122L296,85Z" fill="rgb(112, 87, 54)" fill-opacity="0.55"/><path d="M255,170L250,180L279,159Z" fill="rgb(108, 58, 48)" fill-opacity="0.46"/><path d="M296,276L176,159L297,205Z" fill="rgb(81, 211, 230)" fill-opacity="0.68"/><path d="M292,79L236,83L292,96Z" fill="rgb(37, 185, 209)" fill-opacity="0.68"/><path d="M326,96L335,90L330,101Z" fill="rgb(127, 121, 98)" fill-opacity="0.51"/><path d="M336,109L323,106L398,43Z" fill="rgb(36, 183, 208)" fill-opacity="0.82"/><path d="M204,185L-58,253L-23,334Z" fill="rgb(97, 213, 230)" fill-opacity="0.59"/><path d="M349,71L382,240L562,216Z" fill="rgb(57, 207, 234)" fill-opacity="0.34"/></svg>