<?xml version="1.0" standalone="no"?>
<!DOCTYPE svg PUBLIC "-//W3C//DTD SVG 20010904//EN"
 "http://www.w3.org/TR/2001/REC-SVG-20010904/DTD/svg10.dtd">
<svg version="1.0" xmlns="http://www.w3.org/2000/svg"
 width="512.000000pt" height="512.000000pt" viewBox="0 0 512.000000 512.000000"
 preserveAspectRatio="xMidYMid meet">
<metadata>
Created by potrace 1.11, written by Peter Selinger 2001-2013
</metadata>
<g transform="translate(0.000000,512.000000) scale(0.100000,-0.100000)"
fill="#000000" stroke="none">
<path d="M2331 5109 c-326 -29 -646 -123 -949 -280 -230 -118 -411 -250 -606
-438 -671 -654 -930 -1608 -681 -2516 185 -675 662 -1262 1287 -1584 583 -301
1231 -369 1863 -196 318 87 658 261 915 468 41 34 124 108 184 166 671 654
930 1608 681 2516 -185 675 -662 1262 -1287 1584 -441 228 -921 323 -1407 280z
m869 -1249 l0 -80 -975 0 -975 0 0 80 0 80 975 0 975 0 0 -80z m670 -575 l0
-85 -972 2 -973 3 -3 83 -3 82 976 0 975 0 0 -85z m-670 -730 l0 -85 -975 0
-975 0 0 85 0 85 975 0 975 0 0 -85z m668 -577 l-3 -83 -970 0 -970 0 -3 83
-3 82 976 0 976 0 -3 -82z m-668 -728 l0 -80 -975 0 -975 0 0 80 0 80 975 0
975 0 0 -80z"/>
</g>
</svg>
