<svg xmlns="http://www.w3.org/2000/svg" viewBox="0 0 512 341.3333333333333" clip-path="url(#clip)" width="1913.0000000000002" height="1275.3333333333335"><defs><clipPath id="clip" clipPathUnits="objectBoundingBox"><rect x="0" y="0" width="512" height="341.3333333333333"/></clipPath></defs><rect x="0" y="0" width="512" height="341.3333333333333" fill="rgb(76, 188, 208)"/><path d="M287,72L379,170L226,177Z" fill="rgb(122, 52, 7)" fill-opacity="0.52"/><path d="M331,400L258,162L-129,319Z" fill="rgb(151, 244, 255)" fill-opacity="0.66"/><path d="M323,275L321,381L302,289Z" fill="rgb(160, 38, 6)" fill-opacity="0.45"/><path d="M278,72L322,257L309,315Z" fill="rgb(116, 95, 80)" fill-opacity="0.87"/><path d="M577,66L145,-372L-164,159Z" fill="rgb(0, 161, 190)" fill-opacity="0.70"/><path d="M413,203L125,346L570,349Z" fill="rgb(197, 255, 255)" fill-opacity="0.34"/><path d="M353,147L337,170L453,220Z" fill="rgb(80, 206, 228)" fill-opacity="0.58"/><path d="M361,169L255,91L335,93Z" fill="rgb(123, 111, 78)" fill-opacity="0.56"/><path d="M554,76L274,72L527,221Z" fill="rgb(32, 179, 206)" fill-opacity="0.79"/><path d="M253,178L356,125L244,109Z" fill="rgb(111, 76, 42)" fill-opacity="0.37"/><path d="M277,180L339,199L295,81Z" fill="rgb(109, 90, 71)" fill-opacity="0.65"/><path d="M359,265L520,362L302,376Z" fill="rgb(158, 243, 255)" fill-opacity="0.51"/><path d="M233,269L-363,144L284,166Z" fill="rgb(72, 210, 233)" fill-opacity="0.58"/><path d="M342,59L-111,129L-12,218Z" fill="rgb(32, 194, 219)" fill-opacity="0.57"/><path d="M309,339L333,370L299,200Z" fill="rgb(93, 66, 59)" fill-opacity="0.61"/><path d="M4,335L228,255L317,409Z" fill="rgb(210, 252, 255)" fill-opacity="0.28"/><path d="M312,309L265,157L181,197Z" fill="rgb(75, 202, 224)" fill-opacity="0.39"/><path d="M256,164L266,143L256,153Z" fill="rgb(215, 176, 115)" fill-opacity="0.64"/><path d="M312,87L319,98L299,121Z" fill="rgb(93, 204, 218)" fill-opacity="0.52"/><path d="M253,109L267,103L277,114Z" fill="rgb(46, 189, 216)" fill-opacity="0.64"/><path d="M289,161L272,200L275,180Z" fill="rgb(104, 54, 50)" fill-opacity="0.46"/><path d="M695,273L320,300L315,184Z" fill="rgb(93, 219, 240)" fill-opacity="0.48"/><path d="M253,142L320,121L331,93Z" fill="rgb(144, 125, 81)" fill-opacity="0.53"/><path d="M345,139L371,166L345,115Z" fill="rgb(145, 154, 130)" fill-opacity="0.60"/><path d="M326,107L337,178L351,195Z" fill="rgb(105, 102, 90)" fill-opacity="0.52"/><path d="M190,9L-125,-80L-4,163Z" fill="rgb(0, 156, 181)" fill-opacity="0.56"/><path d="M339,131L362,145L333,118Z" fill="rgb(205, 170, 99)" fill-opacity="0.59"/><path d="M305,287L322,278L297,219Z" fill="rgb(87, 78, 74)" fill-opacity="0.55"/><path d="M251,164L240,143L233,156Z" fill="rgb(151, 91, 57)" fill-opacity="0.47"/><path d="M247,182L287,135L313,143Z" fill="rgb(90, 74, 63)" fill-opacity="0.67"/><path d="M339,478L318,271L443,281Z" fill="rgb(146, 233, 245)" fill-opacity="0.41"/><path d="M277,87L293,73L292,104Z" fill="rgb(48, 191, 218)" fill-opacity="0.64"/><path d="M112,-5L30,-81L-50,76Z" fill="rgb(29, 138, 163)" fill-opacity="0.67"/><path d="M284,137L284,99L262,91Z" fill="rgb(103, 72, 41)" fill-opacity="0.48"/><path d="M290,149L298,132L351,158Z" fill="rgb(93, 73, 56)" fill-opacity="0.62"/><path d="M511,135L537,-41L340,-15Z" fill="rgb(34, 157, 185)" fill-opacity="0.72"/><path d="M308,293L218,314L284,176Z" fill="rgb(113, 229, 246)" fill-opacity="0.41"/><path d="M309,152L341,158L365,176Z" fill="rgb(55, 204, 242)" fill-opacity="0.38"/><path d="M230,170L26,144L246,84Z" fill="rgb(47, 196, 221)" fill-opacity="0.63"/><path d="M24,303L205,172L-157,261Z" fill="rgb(95, 215, 233)" fill-opacity="0.66"/><path d="M236,135L246,142L300,113Z" fill="rgb(119, 101, 74)" fill-opacity="0.58"/><path d="M338,204L315,163L338,194Z" fill="rgb(91, 66, 51)" fill-opacity="0.60"/><path d="M314,176L278,165L301,212Z" fill="rgb(113, 84, 73)" fill-opacity="0.57"/><path d="M219,130L249,113L263,127Z" fill="rgb(31, 208, 243)" fill-opacity="0.47"/><path d="M312,198L298,175L305,252Z" fill="rgb(170, 130, 106)" fill-opacity="0.48"/><path d="M324,314L315,267L323,359Z" fill="rgb(136, 104, 90)" fill-opacity="0.58"/><path d="M290,136L282,115L293,121Z" fill="rgb(242, 227, 156)" fill-opacity="0.41"/><path d="M334,195L324,176L332,177Z" fill="rgb(86, 70, 54)" fill-opacity="0.52"/><path d="M564,269L362,169L414,104Z" fill="rgb(59, 196, 222)" fill-opacity="0.65"/><path d="M267,213L287,185L285,175Z" fill="rgb(59, 202, 225)" fill-opacity="0.49"/><path d="M331,98L321,95L344,95Z" fill="rgb(123, 136, 116)" fill-opacity="0.51"/><path d="M314,235L300,180L310,201Z" fill="rgb(172, 129, 104)" fill-opacity="0.52"/><path d="M262,93L293,122L265,89Z" fill="rgb(100, 74, 41)" fill-opacity="0.46"/><path d="M327,141L305,143L313,127Z" fill="rgb(170, 154, 109)" fill-opacity="0.44"/><path d="M316,115L347,110L347,104Z" fill="rgb(106, 114, 95)" fill-opacity="0.60"/><path d="M358,165L372,170L350,147Z" fill="rgb(76, 206, 233)" fill-opacity="0.54"/><path d="M256,130L276,170L284,124Z" fill="rgb(82, 68, 52)" fill-opacity="0.39"/><path d="M267,102L301,120L280,91Z" fill="rgb(106, 98, 68)" fill-opacity="0.76"/><path d="M299,252L296,204L82,134Z" fill="rgb(75, 208, 229)" fill-opacity="0.46"/><path d="M319,249L486,221L359,177Z" fill="rgb(85, 208, 229)" fill-opacity="0.69"/><path d="M250,82L276,112L239,107Z" fill="rgb(42, 188, 211)" fill-opacity="0.73"/><path d="M248,108L239,112L279,122Z" fill="rgb(104, 74, 47)" fill-opacity="0.56"/><path d="M301,115L324,117L302,111Z" fill="rgb(210, 183, 100)" fill-opacity="0.42"/><path d="M357,17L418,181L342,117Z" fill="rgb(44, 191, 217)" fill-opacity="0.39"/><path d="M326,109L420,89L322,105Z" fill="rgb(42, 183, 208)" fill-opacity="0.88"/><path d="M304,105L312,83L302,92Z" fill="rgb(129, 90, 49)" fill-opacity="0.57"/><path d="M313,126L330,136L336,107Z" fill="rgb(104, 92, 55)" fill-opacity="0.52"/><path d="M239,149L230,164L242,151Z" fill="rgb(141, 99, 64)" fill-opacity="0.47"/><path d="M356,105L322,115L348,105Z" fill="rgb(103, 91, 66)" fill-opacity="0.53"/><path d="M364,168L369,185L357,164Z" fill="rgb(191, 143, 94)" fill-opacity="0.55"/><path d="M260,171L264,178L273,149Z" fill="rgb(90, 70, 57)" fill-opacity="0.51"/><path d="M94,142L-12,209L226,207Z" fill="rgb(79, 206, 229)" fill-opacity="0.44"/><path d="M308,111L331,93L337,96Z" fill="rgb(111, 92, 63)" fill-opacity="0.57"/><path d="M290,194L314,177L283,153Z" fill="rgb(98, 79, 69)" fill-opacity="0.64"/><path d="M328,176L340,164L325,168Z" fill="rgb(98, 151, 160)" fill-opacity="0.51"/><path d="M274,185L222,192L279,168Z" fill="rgb(61, 194, 215)" fill-opacity="0.60"/><path d="M327,160L351,197L341,170Z" fill="rgb(105, 88, 69)" fill-opacity="0.59"/><path d="M250,224L310,307L29,235Z" fill="rgb(118, 223, 239)" fill-opacity="0.47"/><path d="M315,215L304,199L315,229Z" fill="rgb(178, 133, 109)" fill-opacity="0.51"/><path d="M330,298L321,356L424,352Z" fill="rgb(157, 237, 247)" fill-opacity="0.58"/><path d="M312,116L299,129L318,130Z" fill="rgb(82, 82, 65)" fill-opacity="0.55"/><path d="M352,173L353,163L335,156Z" fill="rgb(52, 217, 253)" fill-opacity="0.42"/><path d="M316,369L309,341L308,297Z" fill="rgb(72, 64, 64)" fill-opacity="0.61"/><path d="M232,176L244,167L243,155Z" fill="rgb(100, 105, 95)" fill-opacity="0.68"/><path d="M170,94L238,10L-103,123Z" fill="rgb(0, 182, 208)" fill-opacity="0.49"/><path d="M242,112L188,155L265,122Z" fill="rgb(51, 192, 217)" fill-opacity="0.80"/><path d="M353,139L347,140L335,132Z" fill="rgb(98, 195, 216)" fill-opacity="0.56"/><path d="M297,239L318,248L318,286Z" fill="rgb(107, 85, 75)" fill-opacity="0.61"/><path d="M317,211L332,209L315,174Z" fill="rgb(78, 206, 227)" fill-opacity="0.75"/><path d="M312,180L306,191L310,197Z" fill="rgb(74, 153, 165)" fill-opacity="0.48"/><path d="M307,112L317,32L361,41Z" fill="rgb(26, 184, 209)" fill-opacity="0.45"/><path d="M349,35L289,93L80,44Z" fill="rgb(7, 183, 207)" fill-opacity="0.40"/><path d="M451,14L437,-113L590,107Z" fill="rgb(43, 141, 167)" fill-opacity="0.49"/><path d="M359,147L344,138L315,145Z" fill="rgb(84, 69, 47)" fill-opacity="0.51"/><path d="M223,139L271,55L66,96Z" fill="rgb(36, 188, 211)" fill-opacity="0.41"/><path d="M309,311L237,213L295,215Z" fill="rgb(107, 221, 236)" fill-opacity="0.41"/><path d="M313,191L320,194L296,199Z" fill="rgb(104, 123, 118)" fill-opacity="0.46"/><path d="M316,182L313,187L282,165Z" fill="rgb(92, 75, 64)" fill-opacity="0.64"/><path d="M326,126L298,105L357,127Z" fill="rgb(157, 135, 80)" fill-opacity="0.45"/><path d="M528,343L344,149L506,226Z" fill="rgb(80, 200, 221)" fill-opacity="0.43"/><path d="M246,76L272,94L317,81Z" fill="rgb(46, 187, 209)" fill-opacity="0.44"/><path d="M337,140L321,138L331,136Z" fill="rgb(64, 171, 205)" fill-opacity="0.42"/><path d="M58,326L207,304L74,376Z" fill="rgb(186, 246, 254)" fill-opacity="0.33"/><path d="M345,157L360,162L357,167Z" fill="rgb(105, 79, 58)" fill-opacity="0.57"/><path d="M351,123L351,127L340,125Z" fill="rgb(127, 89, 36)" fill-opacity="0.52"/><path d="M332,150L335,161L344,169Z" fill="rgb(93, 83, 65)" fill-opacity="0.55"/><path d="M305,287L302,246L311,297Z" fill="rgb(63, 65, 68)" fill-opacity="0.52"/><path d="M381,134L357,135L343,125Z" fill="rgb(45, 189, 213)" fill-opacity="0.45"/><path d="M245,151L241,135L250,128Z" fill="rgb(146, 147, 129)" fill-opacity="0.60"/><path d="M335,89L370,96L334,104Z" fill="rgb(39, 186, 211)" fill-opacity="0.72"/><path d="M300,109L330,94L324,106Z" fill="rgb(126, 103, 78)" fill-opacity="0.48"/><path d="M316,156L332,164L315,175Z" fill="rgb(74, 73, 67)" fill-opacity="0.48"/><path d="M246,138L110,141L195,201Z" fill="rgb(67, 204, 228)" fill-opacity="0.44"/><path d="M274,199L278,181L273,185Z" fill="rgb(100, 72, 68)" fill-opacity="0.54"/><path d="M304,118L325,97L329,100Z" fill="rgb(80, 75, 49)" fill-opacity="0.43"/><path d="M239,162L254,132L257,153Z" fill="rgb(94, 81, 63)" fill-opacity="0.60"/><path d="M383,2L409,125L616,180Z" fill="rgb(27, 174, 201)" fill-opacity="0.49"/><path d="M307,186L319,241L391,280Z" fill="rgb(104, 218, 235)" fill-opacity="0.60"/><path d="M-47,213L16,110L107,101Z" fill="rgb(18, 185, 209)" fill-opacity="0.51"/><path d="M243,134L244,139L260,122Z" fill="rgb(215, 147, 102)" fill-opacity="0.35"/><path d="M318,228L303,240L300,229Z" fill="rgb(169, 125, 101)" fill-opacity="0.39"/><path d="M-71,206L122,88L257,102Z" fill="rgb(47, 188, 212)" fill-opacity="0.34"/><path d="M363,160L340,147L329,145Z" fill="rgb(82, 188, 220)" fill-opacity="0.53"/><path d="M2,77L-32,44L148,-14Z" fill="rgb(9, 150, 177)" fill-opacity="0.57"/><path d="M262,311L301,328L308,414Z" fill="rgb(174, 240, 250)" fill-opacity="0.53"/><path d="M338,118L353,116L344,121Z" fill="rgb(41, 200, 231)" fill-opacity="0.62"/><path d="M270,163L314,160L316,140Z" fill="rgb(97, 76, 66)" fill-opacity="0.57"/><path d="M308,105L300,106L298,135Z" fill="rgb(153, 147, 105)" fill-opacity="0.61"/><path d="M367,104L361,147L476,187Z" fill="rgb(54, 192, 217)" fill-opacity="0.65"/><path d="M314,173L333,205L295,126Z" fill="rgb(109, 84, 73)" fill-opacity="0.36"/><path d="M262,137L258,139L246,158Z" fill="rgb(190, 154, 102)" fill-opacity="0.55"/><path d="M329,156L392,222L344,177Z" fill="rgb(86, 200, 220)" fill-opacity="0.56"/><path d="M241,189L271,153L221,180Z" fill="rgb(40, 185, 213)" fill-opacity="0.33"/><path d="M264,134L253,142L252,126Z" fill="rgb(78, 69, 46)" fill-opacity="0.38"/><path d="M518,385L452,271L317,255Z" fill="rgb(118, 220, 236)" fill-opacity="0.56"/><path d="M267,88L274,98L260,94Z" fill="rgb(126, 98, 78)" fill-opacity="0.40"/><path d="M338,198L309,140L339,211Z" fill="rgb(94, 88, 75)" fill-opacity="0.62"/><path d="M7,27L57,-5L-47,-4Z" fill="rgb(37, 135, 159)" fill-opacity="0.54"/><path d="M307,306L314,292L309,349Z" fill="rgb(76, 65, 64)" fill-opacity="0.37"/><path d="M291,96L300,86L290,129Z" fill="rgb(116, 107, 78)" fill-opacity="0.56"/><path d="M316,139L262,136L311,134Z" fill="rgb(87, 77, 57)" fill-opacity="0.58"/><path d="M259,110L281,130L239,109Z" fill="rgb(109, 96, 74)" fill-opacity="0.59"/><path d="M342,131L318,115L328,134Z" fill="rgb(100, 93, 56)" fill-opacity="0.46"/><path d="M312,211L306,224L317,228Z" fill="rgb(167, 134, 113)" fill-opacity="0.51"/><path d="M293,214L292,189L294,196Z" fill="rgb(62, 207, 226)" fill-opacity="0.49"/><path d="M286,150L301,130L282,146Z" fill="rgb(139, 103, 61)" fill-opacity="0.48"/><path d="M40,305L236,240L182,301Z" fill="rgb(132, 229, 245)" fill-opacity="0.46"/><path d="M128,278L-32,338L53,356Z" fill="rgb(146, 231, 241)" fill-opacity="0.47"/><path d="M322,203L397,230L369,256Z" fill="rgb(101, 215, 233)" fill-opacity="0.44"/><path d="M319,254L316,232L343,278Z" fill="rgb(104, 216, 231)" fill-opacity="0.66"/><path d="M255,126L246,128L269,129Z" fill="rgb(145, 160, 156)" fill-opacity="0.49"/><path d="M346,135L353,143L339,133Z" fill="rgb(89, 199, 227)" fill-opacity="0.50"/><path d="M14,79L240,56L122,18Z" fill="rgb(0, 169, 197)" fill-opacity="0.48"/><path d="M301,95L292,123L304,96Z" fill="rgb(95, 82, 51)" fill-opacity="0.59"/><path d="M270,162L265,176L276,175Z" fill="rgb(55, 212, 243)" fill-opacity="0.42"/><path d="M371,164L361,160L355,149Z" fill="rgb(191, 171, 139)" fill-opacity="0.47"/><path d="M311,186L316,185L316,200Z" fill="rgb(84, 68, 55)" fill-opacity="0.52"/><path d="M234,313L308,314L301,266Z" fill="rgb(141, 232, 246)" fill-opacity="0.40"/><path d="M243,166L246,161L230,155Z" fill="rgb(155, 163, 140)" fill-opacity="0.49"/><path d="M174,150L213,194L238,166Z" fill="rgb(68, 203, 225)" fill-opacity="0.69"/><path d="M249,180L249,193L252,176Z" fill="rgb(100, 89, 96)" fill-opacity="0.46"/><path d="M180,174L234,200L272,189Z" fill="rgb(74, 206, 227)" fill-opacity="0.84"/><path d="M239,152L251,139L233,152Z" fill="rgb(168, 166, 152)" fill-opacity="0.53"/><path d="M276,137L265,141L263,152Z" fill="rgb(142, 116, 75)" fill-opacity="0.45"/><path d="M277,149L272,134L286,135Z" fill="rgb(87, 78, 59)" fill-opacity="0.72"/><path d="M252,273L130,311L299,324Z" fill="rgb(153, 235, 248)" fill-opacity="0.37"/><path d="M296,167L304,171L295,176Z" fill="rgb(71, 57, 49)" fill-opacity="0.50"/><path d="M254,156L230,174L244,169Z" fill="rgb(98, 91, 77)" fill-opacity="0.47"/><path d="M393,244L368,169L472,286Z" fill="rgb(75, 200, 224)" fill-opacity="0.18"/><path d="M252,174L259,168L266,177Z" fill="rgb(106, 90, 92)" fill-opacity="0.49"/><path d="M290,101L286,95L275,123Z" fill="rgb(93, 90, 67)" fill-opacity="0.57"/><path d="M346,107L345,106L329,112Z" fill="rgb(95, 69, 34)" fill-opacity="0.50"/><path d="M11,247L115,148L-74,256Z" fill="rgb(70, 203, 224)" fill-opacity="0.60"/><path d="M317,141L323,141L311,131Z" fill="rgb(246, 216, 155)" fill-opacity="0.42"/><path d="M360,149L367,151L353,137Z" fill="rgb(179, 158, 114)" fill-opacity="0.51"/><path d="M313,99L365,82L307,54Z" fill="rgb(31, 184, 208)" fill-opacity="0.63"/><path d="M297,223L310,215L297,209Z" fill="rgb(99, 79, 73)" fill-opacity="0.50"/><path d="M336,141L297,142L298,151Z" fill="rgb(86, 71, 56)" fill-opacity="0.45"/><path d="M276,97L275,88L273,100Z" fill="rgb(110, 176, 186)" fill-opacity="0.55"/><path d="M329,99L331,94L337,94Z" fill="rgb(237, 126, 41)" fill-opacity="0.30"/><path d="M307,105L345,86L308,95Z" fill="rgb(51, 189, 217)" fill-opacity="0.49"/><path d="M190,-118L247,33L137,40Z" fill="rgb(19, 164, 192)" fill-opacity="0.67"/><path d="M321,296L318,262L371,243Z" fill="rgb(111, 220, 236)" fill-opacity="0.76"/><path d="M304,275L221,205L302,258Z" fill="rgb(101, 216, 233)" fill-opacity="0.92"/><path d="M339,165L349,184L334,162Z" fill="rgb(131, 181, 196)" fill-opacity="0.53"/><path d="M345,115L341,115L344,117Z" fill="rgb(162, 98, 77)" fill-opacity="0.48"/><path d="M304,165L302,183L321,147Z" fill="rgb(141, 116, 97)" fill-opacity="0.48"/><path d="M363,141L358,134L347,130Z" fill="rgb(177, 159, 126)" fill-opacity="0.58"/><path d="M333,116L342,117L342,125Z" fill="rgb(91, 173, 188)" fill-opacity="0.50"/><path d="M348,107L347,113L332,115Z" fill="rgb(36, 200, 235)" fill-opacity="0.53"/><path d="M404,-1L506,56L425,-49Z" fill="rgb(35, 155, 183)" fill-opacity="0.73"/><path d="M338,176L337,201L347,191Z" fill="rgb(70, 204, 227)" fill-opacity="0.52"/><path d="M292,108L270,112L263,124Z" fill="rgb(92, 88, 65)" fill-opacity="0.44"/><path d="M237,110L246,110L283,122Z" fill="rgb(94, 84, 62)" fill-opacity="0.55"/><path d="M538,359L579,281L405,265Z" fill="rgb(103, 210, 228)" fill-opacity="0.40"/><path d="M350,189L382,195L344,166Z" fill="rgb(67, 203, 226)" fill-opacity="0.63"/><path d="M321,132L324,148L329,124Z" fill="rgb(79, 89, 78)" fill-opacity="0.50"/><path d="M289,92L333,45L199,81Z" fill="rgb(26, 181, 206)" fill-opacity="0.62"/><path d="M84,180L270,224L-28,294Z" fill="rgb(97, 213, 233)" fill-opacity="0.30"/><path d="M300,159L322,174L299,168Z" fill="rgb(173, 132, 102)" fill-opacity="0.37"/><path d="M323,308L348,279L326,345Z" fill="rgb(139, 231, 243)" fill-opacity="0.60"/><path d="M315,343L115,352L211,320Z" fill="rgb(181, 241, 251)" fill-opacity="0.61"/><path d="M341,167L332,158L322,155Z" fill="rgb(73, 206, 235)" fill-opacity="0.50"/><path d="M335,188L339,192L338,200Z" fill="rgb(95, 172, 193)" fill-opacity="0.57"/><path d="M318,117L312,115L319,120Z" fill="rgb(255, 243, 136)" fill-opacity="0.47"/><path d="M310,107L304,111L309,115Z" fill="rgb(94, 174, 217)" fill-opacity="0.26"/><path d="M363,51L428,-1L305,0Z" fill="rgb(37, 164, 193)" fill-opacity="0.48"/><path d="M306,156L289,166L287,161Z" fill="rgb(77, 60, 50)" fill-opacity="0.43"/><path d="M241,166L229,157L248,167Z" fill="rgb(116, 165, 168)" fill-opacity="0.54"/><path d="M291,116L305,87L312,91Z" fill="rgb(113, 88, 52)" fill-opacity="0.37"/><path d="M419,142L532,293L499,157Z" fill="rgb(58, 189, 212)" fill-opacity="0.36"/><path d="M294,132L278,105L288,133Z" fill="rgb(189, 174, 123)" fill-opacity="0.34"/><path d="M-37,122L-2,143L134,63Z" fill="rgb(0, 176, 202)" fill-opacity="0.66"/><path d="M374,155L362,149L359,145Z" fill="rgb(131, 130, 110)" fill-opacity="0.44"/><path d="M370,165L370,161L356,145Z" fill="rgb(173, 146, 104)" fill-opacity="0.43"/><path d="M292,150L262,150L260,159Z" fill="rgb(88, 69, 55)" fill-opacity="0.58"/><path d="M293,96L299,87L293,105Z" fill="rgb(69, 63, 40)" fill-opacity="0.50"/><path d="M288,96L285,117L273,110Z" fill="rgb(90, 86, 59)" fill-opacity="0.60"/><path d="M360,153L326,147L368,150Z" fill="rgb(50, 183, 225)" fill-opacity="0.29"/><path d="M280,88L373,29L448,75Z" fill="rgb(29, 178, 204)" fill-opacity="0.47"/><path d="M313,333L325,340L326,358Z" fill="rgb(139, 118, 106)" fill-opacity="0.58"/><path d="M304,118L322,109L311,108Z" fill="rgb(115, 103, 69)" fill-opacity="0.47"/><path d="M322,109L331,98L405,82Z" fill="rgb(40, 184, 209)" fill-opacity="0.93"/><path d="M233,154L237,156L252,144Z" fill="rgb(94, 71, 49)" fill-opacity="0.43"/><path d="M318,170L326,193L315,174Z" fill="rgb(98, 68, 63)" fill-opacity="0.45"/><path d="M275,90L278,112L282,93Z" fill="rgb(122, 106, 73)" fill-opacity="0.55"/><path d="M337,193L328,189L332,180Z" fill="rgb(93, 86, 73)" fill-opacity="0.50"/><path d="M251,164L266,164L251,171Z" fill="rgb(55, 208, 237)" fill-opacity="0.50"/><path d="M324,139L309,144L341,136Z" fill="rgb(98, 148, 157)" fill-opacity="0.46"/><path d="M147,115L243,138L229,159Z" fill="rgb(51, 195, 219)" fill-opacity="0.63"/><path d="M253,183L251,178L250,183Z" fill="rgb(100, 82, 88)" fill-opacity="0.47"/><path d="M278,128L277,114L287,131Z" fill="rgb(77, 81, 63)" fill-opacity="0.57"/><path d="M312,227L302,203L303,174Z" fill="rgb(157, 125, 103)" fill-opacity="0.59"/><path d="M317,214L321,206L306,181Z" fill="rgb(71, 202, 222)" fill-opacity="0.52"/><path d="M293,123L298,122L297,98Z" fill="rgb(71, 70, 50)" fill-opacity="0.41"/><path d="M305,204L304,202L312,204Z" fill="rgb(197, 179, 151)" fill-opacity="0.48"/><path d="M337,155L356,166L368,186Z" fill="rgb(60, 196, 220)" fill-opacity="0.49"/><path d="M307,193L310,208L306,158Z" fill="rgb(93, 43, 30)" fill-opacity="0.29"/><path d="M278,168L270,167L282,176Z" fill="rgb(63, 203, 233)" fill-opacity="0.46"/><path d="M337,175L356,223L325,165Z" fill="rgb(77, 199, 221)" fill-opacity="0.78"/><path d="M365,15L369,57L274,21Z" fill="rgb(27, 171, 198)" fill-opacity="0.68"/><path d="M360,172L364,170L350,153Z" fill="rgb(136, 118, 94)" fill-opacity="0.49"/><path d="M98,244L-40,309L15,344Z" fill="rgb(122, 222, 234)" fill-opacity="0.44"/><path d="M307,302L307,282L314,312Z" fill="rgb(90, 76, 71)" fill-opacity="0.61"/><path d="M331,193L335,207L317,190Z" fill="rgb(63, 211, 235)" fill-opacity="0.47"/><path d="M341,150L326,156L353,159Z" fill="rgb(94, 87, 70)" fill-opacity="0.63"/><path d="M-8,326L79,218L-47,286Z" fill="rgb(98, 212, 227)" fill-opacity="0.40"/><path d="M260,138L256,141L264,139Z" fill="rgb(199, 160, 103)" fill-opacity="0.47"/><path d="M307,281L299,241L304,241Z" fill="rgb(66, 61, 62)" fill-opacity="0.56"/><path d="M348,121L337,125L320,122Z" fill="rgb(175, 147, 88)" fill-opacity="0.37"/></svg>