<?xml version="1.0" standalone="no"?>
<!DOCTYPE svg PUBLIC "-//W3C//DTD SVG 20010904//EN"
 "http://www.w3.org/TR/2001/REC-SVG-20010904/DTD/svg10.dtd">
<svg version="1.0" xmlns="http://www.w3.org/2000/svg"
 width="512.000000pt" height="512.000000pt" viewBox="0 0 512.000000 512.000000"
 preserveAspectRatio="xMidYMid meet">
<metadata>
Created by potrace 1.11, written by Peter Selinger 2001-2013
</metadata>
<g transform="translate(0.000000,512.000000) scale(0.100000,-0.100000)"
fill="#000000" stroke="none">
<path d="M1986 5104 c-180 -43 -333 -197 -381 -381 -10 -36 -15 -104 -15 -185
l0 -128 175 0 175 0 0 114 c0 145 6 171 46 211 48 48 85 51 191 16 149 -49
235 -64 383 -64 148 0 234 15 383 64 106 35 143 32 191 -16 40 -40 46 -66 46
-211 l0 -114 175 0 175 0 0 128 c0 81 -5 149 -15 185 -49 187 -202 338 -386
382 -91 21 -1054 21 -1143 -1z"/>
<path d="M1350 4140 c-929 -6 -876 -3 -1000 -65 -125 -63 -216 -155 -278 -280
-64 -128 -65 -135 -69 -646 l-5 -466 46 -13 46 -13 0 -1252 0 -1252 23 -44
c13 -24 43 -57 66 -74 l43 -30 2338 0 2338 0 43 30 c23 17 53 50 66 74 l23 44
0 1252 0 1252 46 13 46 13 -5 466 c-4 511 -5 518 -69 646 -62 126 -153 217
-281 281 -126 64 -76 62 -1377 66 -652 1 -1570 1 -2040 -2z m858 -1622 l2
-398 135 0 135 0 0 193 c1 206 3 217 53 236 31 12 73 0 93 -27 10 -13 13 -67
14 -209 l0 -193 135 0 135 0 2 398 3 397 133 3 132 3 -2 -533 -3 -533 -615 0
-615 0 -3 533 -2 533 132 -3 133 -3 3 -397z m1519 -234 c-3 -3 -12 -4 -19 -1
-8 3 -5 6 6 6 11 1 17 -2 13 -5z m-70 -10 c-3 -3 -12 -4 -19 -1 -8 3 -5 6 6 6
11 1 17 -2 13 -5z m-2070 -20 c-3 -3 -12 -4 -19 -1 -8 3 -5 6 6 6 11 1 17 -2
13 -5z m1930 0 c-3 -3 -12 -4 -19 -1 -8 3 -5 6 6 6 11 1 17 -2 13 -5z m-1840
-10 c-3 -3 -12 -4 -19 -1 -8 3 -5 6 6 6 11 1 17 -2 13 -5z m1750 0 c-3 -3 -12
-4 -19 -1 -8 3 -5 6 6 6 11 1 17 -2 13 -5z m-1654 -11 c-7 -2 -19 -2 -25 0 -7
3 -2 5 12 5 14 0 19 -2 13 -5z m1570 0 c-7 -2 -19 -2 -25 0 -7 3 -2 5 12 5 14
0 19 -2 13 -5z m-1470 -10 c-7 -2 -19 -2 -25 0 -7 3 -2 5 12 5 14 0 19 -2 13
-5z m1384 1 c-3 -3 -12 -4 -19 -1 -8 3 -5 6 6 6 11 1 17 -2 13 -5z m1333
-1609 l0 -175 -440 0 -440 0 0 175 0 175 440 0 440 0 0 -175z"/>
</g>
</svg>
